<svg xmlns="http://www.w3.org/2000/svg" viewBox="0 0 1200 630" width="1200" height="630">
<defs>
  <linearGradient id="sky" x1="0" y1="0" x2="0" y2="1">
    <stop offset="0" stop-color="#0A0F1E"/><stop offset="1" stop-color="#101B33"/>
  </linearGradient>
  <radialGradient id="glow" cx="0.618" cy="0.146" r=".55">
    <stop offset="0" stop-color="#F2A65A" stop-opacity=".16"/><stop offset="1" stop-color="#F2A65A" stop-opacity="0"/>
  </radialGradient>
</defs>
<rect id="bg" width="1200" height="630" fill="url(#sky)"/>
<rect width="1200" height="630" fill="url(#glow)"/>
<g id="art">
  <g id="grid"><line x1="952.22" y1="739.67" x2="336.41" y2="283.44" stroke="#58C6E0" stroke-opacity=".16" stroke-width="1"/><line x1="984.68" y1="615.84" x2="387.71" y2="270.94" stroke="#58C6E0" stroke-opacity=".16" stroke-width="1"/><line x1="1006.72" y1="531.77" x2="432.72" y2="259.97" stroke="#58C6E0" stroke-opacity=".16" stroke-width="1"/><line x1="1022.66" y1="470.95" x2="472.54" y2="250.27" stroke="#58C6E0" stroke-opacity=".16" stroke-width="1"/><line x1="1034.73" y1="424.91" x2="508.00" y2="241.62" stroke="#58C6E0" stroke-opacity=".16" stroke-width="1"/><line x1="1044.19" y1="388.84" x2="539.80" y2="233.88" stroke="#58C6E0" stroke-opacity=".16" stroke-width="1"/><line x1="1051.79" y1="359.83" x2="568.46" y2="226.89" stroke="#58C6E0" stroke-opacity=".16" stroke-width="1"/><line x1="1058.04" y1="335.98" x2="594.43" y2="220.56" stroke="#58C6E0" stroke-opacity=".16" stroke-width="1"/><line x1="1063.27" y1="316.03" x2="618.07" y2="214.80" stroke="#58C6E0" stroke-opacity=".16" stroke-width="1"/><line x1="1067.71" y1="299.10" x2="639.69" y2="209.53" stroke="#58C6E0" stroke-opacity=".16" stroke-width="1"/><line x1="1071.53" y1="284.54" x2="659.53" y2="204.70" stroke="#58C6E0" stroke-opacity=".16" stroke-width="1"/><line x1="1074.84" y1="271.90" x2="677.80" y2="200.25" stroke="#58C6E0" stroke-opacity=".16" stroke-width="1"/><line x1="1077.75" y1="260.82" x2="694.68" y2="196.13" stroke="#58C6E0" stroke-opacity=".16" stroke-width="1"/><line x1="952.22" y1="739.67" x2="1077.75" y2="260.82" stroke="#58C6E0" stroke-opacity=".16" stroke-width="1"/><line x1="807.37" y1="632.36" x2="1028.54" y2="252.51" stroke="#58C6E0" stroke-opacity=".16" stroke-width="1"/><line x1="703.70" y1="555.55" x2="983.95" y2="244.98" stroke="#58C6E0" stroke-opacity=".16" stroke-width="1"/><line x1="625.83" y1="497.86" x2="943.36" y2="238.13" stroke="#58C6E0" stroke-opacity=".16" stroke-width="1"/><line x1="565.20" y1="452.94" x2="906.25" y2="231.86" stroke="#58C6E0" stroke-opacity=".16" stroke-width="1"/><line x1="516.65" y1="416.98" x2="872.19" y2="226.11" stroke="#58C6E0" stroke-opacity=".16" stroke-width="1"/><line x1="476.90" y1="387.53" x2="840.82" y2="220.81" stroke="#58C6E0" stroke-opacity=".16" stroke-width="1"/><line x1="443.76" y1="362.97" x2="811.84" y2="215.92" stroke="#58C6E0" stroke-opacity=".16" stroke-width="1"/><line x1="415.70" y1="342.19" x2="784.98" y2="211.38" stroke="#58C6E0" stroke-opacity=".16" stroke-width="1"/><line x1="391.64" y1="324.36" x2="760.01" y2="207.16" stroke="#58C6E0" stroke-opacity=".16" stroke-width="1"/><line x1="370.78" y1="308.91" x2="736.75" y2="203.24" stroke="#58C6E0" stroke-opacity=".16" stroke-width="1"/><line x1="352.52" y1="295.38" x2="715.02" y2="199.57" stroke="#58C6E0" stroke-opacity=".16" stroke-width="1"/><line x1="336.41" y1="283.44" x2="694.68" y2="196.13" stroke="#58C6E0" stroke-opacity=".16" stroke-width="1"/></g>
  <g id="guides"><line x1="78.00" y1="92.00" x2="743.21" y2="182.62" stroke="#F2A65A" stroke-opacity=".26" stroke-width="1"/><line x1="78.00" y1="92.00" x2="815.74" y2="170.10" stroke="#F2A65A" stroke-opacity=".26" stroke-width="1"/><line x1="1122.00" y1="92.00" x2="771.72" y2="180.91" stroke="#F2A65A" stroke-opacity=".26" stroke-width="1"/><line x1="1122.00" y1="92.00" x2="669.58" y2="170.10" stroke="#F2A65A" stroke-opacity=".26" stroke-width="1"/><line x1="78.00" y1="92.00" x2="860.38" y2="279.83" stroke="#F2A65A" stroke-opacity=".26" stroke-width="1"/><line x1="78.00" y1="92.00" x2="913.67" y2="255.28" stroke="#F2A65A" stroke-opacity=".26" stroke-width="1"/><line x1="1122.00" y1="92.00" x2="876.72" y2="276.62" stroke="#F2A65A" stroke-opacity=".26" stroke-width="1"/><line x1="1122.00" y1="92.00" x2="767.51" y2="255.28" stroke="#F2A65A" stroke-opacity=".26" stroke-width="1"/><line x1="78.00" y1="92.00" x2="648.02" y2="295.51" stroke="#F2A65A" stroke-opacity=".26" stroke-width="1"/><line x1="78.00" y1="92.00" x2="738.59" y2="265.79" stroke="#F2A65A" stroke-opacity=".26" stroke-width="1"/><line x1="1122.00" y1="92.00" x2="689.88" y2="291.43" stroke="#F2A65A" stroke-opacity=".26" stroke-width="1"/><line x1="1122.00" y1="92.00" x2="592.43" y2="265.79" stroke="#F2A65A" stroke-opacity=".26" stroke-width="1"/><line x1="78.00" y1="92.00" x2="681.78" y2="228.95" stroke="#F2A65A" stroke-opacity=".26" stroke-width="1"/><line x1="78.00" y1="92.00" x2="749.94" y2="213.03" stroke="#F2A65A" stroke-opacity=".26" stroke-width="1"/><line x1="1122.00" y1="92.00" x2="668.91" y2="224.76" stroke="#F2A65A" stroke-opacity=".26" stroke-width="1"/><line x1="1122.00" y1="92.00" x2="603.78" y2="213.03" stroke="#F2A65A" stroke-opacity=".26" stroke-width="1"/><line x1="78.00" y1="92.00" x2="764.43" y2="342.32" stroke="#F2A65A" stroke-opacity=".26" stroke-width="1"/><line x1="78.00" y1="92.00" x2="850.13" y2="299.74" stroke="#F2A65A" stroke-opacity=".26" stroke-width="1"/><line x1="1122.00" y1="92.00" x2="812.70" y2="328.99" stroke="#F2A65A" stroke-opacity=".26" stroke-width="1"/><line x1="1122.00" y1="92.00" x2="703.97" y2="299.74" stroke="#F2A65A" stroke-opacity=".26" stroke-width="1"/><line x1="78.00" y1="92.00" x2="612.15" y2="275.67" stroke="#F2A65A" stroke-opacity=".26" stroke-width="1"/><line x1="78.00" y1="92.00" x2="686.34" y2="254.90" stroke="#F2A65A" stroke-opacity=".26" stroke-width="1"/><line x1="1122.00" y1="92.00" x2="592.50" y2="268.91" stroke="#F2A65A" stroke-opacity=".26" stroke-width="1"/><line x1="1122.00" y1="92.00" x2="540.18" y2="254.90" stroke="#F2A65A" stroke-opacity=".26" stroke-width="1"/></g>
  <g id="nadir-rays"><line x1="690.00" y1="980.00" x2="766.82" y2="73.19" stroke="#58C6E0" stroke-opacity=".40" stroke-width="1" stroke-dasharray="7 6"/><line x1="690.00" y1="980.00" x2="832.20" y2="56.59" stroke="#58C6E0" stroke-opacity=".40" stroke-width="1" stroke-dasharray="7 6"/><line x1="690.00" y1="980.00" x2="657.53" y2="58.30" stroke="#58C6E0" stroke-opacity=".40" stroke-width="1" stroke-dasharray="7 6"/><line x1="690.00" y1="980.00" x2="730.06" y2="45.78" stroke="#58C6E0" stroke-opacity=".40" stroke-width="1" stroke-dasharray="7 6"/><line x1="690.00" y1="980.00" x2="894.67" y2="184.31" stroke="#58C6E0" stroke-opacity=".40" stroke-width="1" stroke-dasharray="7 6"/><line x1="690.00" y1="980.00" x2="937.20" y2="152.30" stroke="#58C6E0" stroke-opacity=".40" stroke-width="1" stroke-dasharray="7 6"/><line x1="690.00" y1="980.00" x2="774.70" y2="155.51" stroke="#58C6E0" stroke-opacity=".40" stroke-width="1" stroke-dasharray="7 6"/><line x1="690.00" y1="980.00" x2="827.99" y2="130.96" stroke="#58C6E0" stroke-opacity=".40" stroke-width="1" stroke-dasharray="7 6"/><line x1="690.00" y1="980.00" x2="663.36" y2="207.26" stroke="#58C6E0" stroke-opacity=".40" stroke-width="1" stroke-dasharray="7 6"/><line x1="690.00" y1="980.00" x2="750.36" y2="167.11" stroke="#58C6E0" stroke-opacity=".40" stroke-width="1" stroke-dasharray="7 6"/><line x1="690.00" y1="980.00" x2="562.34" y2="171.19" stroke="#58C6E0" stroke-opacity=".40" stroke-width="1" stroke-dasharray="7 6"/><line x1="690.00" y1="980.00" x2="652.91" y2="141.47" stroke="#58C6E0" stroke-opacity=".40" stroke-width="1" stroke-dasharray="7 6"/><line x1="690.00" y1="980.00" x2="663.17" y2="119.84" stroke="#58C6E0" stroke-opacity=".40" stroke-width="1" stroke-dasharray="7 6"/><line x1="690.00" y1="980.00" x2="729.39" y2="100.44" stroke="#58C6E0" stroke-opacity=".40" stroke-width="1" stroke-dasharray="7 6"/><line x1="690.00" y1="980.00" x2="596.10" y2="104.63" stroke="#58C6E0" stroke-opacity=".40" stroke-width="1" stroke-dasharray="7 6"/><line x1="690.00" y1="980.00" x2="664.26" y2="88.71" stroke="#58C6E0" stroke-opacity=".40" stroke-width="1" stroke-dasharray="7 6"/><line x1="690.00" y1="980.00" x2="798.70" y2="261.74" stroke="#58C6E0" stroke-opacity=".40" stroke-width="1" stroke-dasharray="7 6"/><line x1="690.00" y1="980.00" x2="873.18" y2="204.67" stroke="#58C6E0" stroke-opacity=".40" stroke-width="1" stroke-dasharray="7 6"/><line x1="690.00" y1="980.00" x2="678.75" y2="218.00" stroke="#58C6E0" stroke-opacity=".40" stroke-width="1" stroke-dasharray="7 6"/><line x1="690.00" y1="980.00" x2="764.45" y2="175.42" stroke="#58C6E0" stroke-opacity=".40" stroke-width="1" stroke-dasharray="7 6"/><line x1="690.00" y1="980.00" x2="578.83" y2="169.36" stroke="#58C6E0" stroke-opacity=".40" stroke-width="1" stroke-dasharray="7 6"/><line x1="690.00" y1="980.00" x2="652.98" y2="144.59" stroke="#58C6E0" stroke-opacity=".40" stroke-width="1" stroke-dasharray="7 6"/><line x1="690.00" y1="980.00" x2="526.47" y2="151.35" stroke="#58C6E0" stroke-opacity=".40" stroke-width="1" stroke-dasharray="7 6"/><line x1="690.00" y1="980.00" x2="600.66" y2="130.58" stroke="#58C6E0" stroke-opacity=".40" stroke-width="1" stroke-dasharray="7 6"/></g>
  <line x1="-50.00" y1="92.00" x2="1250.00" y2="92.00" stroke="#F2A65A" stroke-opacity=".70" stroke-width="1.2"/>
  <g id="boxes"><path d="M666.47,225.47L607.63,212.13L667.42,198.16L724.55,208.45Z" fill="#080D1B" fill-opacity=".88" stroke="#F8D6A2" stroke-width="2.2" stroke-linejoin="round"/><path d="M667.89,271.14L722.71,249.51L724.55,208.45L666.47,225.47Z" fill="#080D1B" fill-opacity=".88" stroke="#F8D6A2" stroke-width="2.2" stroke-linejoin="round"/><path d="M667.89,271.14L612.15,254.21L607.63,212.13L666.47,225.47Z" fill="#080D1B" fill-opacity=".88" stroke="#F8D6A2" stroke-width="2.2" stroke-linejoin="round"/><path d="M592.49,268.91L546.55,253.11L611.63,234.89L657.52,247.18Z" fill="#080D1B" fill-opacity=".88" stroke="#F8D6A2" stroke-width="2.2" stroke-linejoin="round"/><path d="M596.31,296.79L658.64,272.50L657.52,247.18L592.49,268.91Z" fill="#080D1B" fill-opacity=".88" stroke="#F8D6A2" stroke-width="2.2" stroke-linejoin="round"/><path d="M596.31,296.79L551.69,279.16L546.55,253.11L592.49,268.91Z" fill="#080D1B" fill-opacity=".88" stroke="#F8D6A2" stroke-width="2.2" stroke-linejoin="round"/><path d="M747.59,300.15L799.10,271.52L814.74,169.99L757.38,184.55Z" fill="#080D1B" fill-opacity=".88" stroke="#F8D6A2" stroke-width="2.2" stroke-linejoin="round"/><path d="M757.38,184.55L661.51,171.49L725.14,160.51L814.74,169.99Z" fill="#080D1B" fill-opacity=".88" stroke="#F8D6A2" stroke-width="2.2" stroke-linejoin="round"/><path d="M747.59,300.15L665.14,274.52L661.51,171.49L757.38,184.55Z" fill="#080D1B" fill-opacity=".88" stroke="#F8D6A2" stroke-width="2.2" stroke-linejoin="round"/><path d="M869.54,282.03L764.30,256.76L811.05,235.23L906.84,253.95Z" fill="#080D1B" fill-opacity=".88" stroke="#F8D6A2" stroke-width="2.2" stroke-linejoin="round"/><path d="M666.63,302.16L578.02,270.52L657.47,244.45L742.95,266.94Z" fill="#080D1B" fill-opacity=".88" stroke="#F8D6A2" stroke-width="2.2" stroke-linejoin="round"/><path d="M858.17,326.21L895.03,293.49L906.84,253.95L869.54,282.03Z" fill="#080D1B" fill-opacity=".88" stroke="#F8D6A2" stroke-width="2.2" stroke-linejoin="round"/><path d="M858.17,326.21L760.19,296.79L764.30,256.76L869.54,282.03Z" fill="#080D1B" fill-opacity=".88" stroke="#F8D6A2" stroke-width="2.2" stroke-linejoin="round"/><path d="M667.94,340.02L740.46,300.41L742.95,266.94L666.63,302.16Z" fill="#080D1B" fill-opacity=".88" stroke="#F8D6A2" stroke-width="2.2" stroke-linejoin="round"/><path d="M667.94,340.02L583.38,304.47L578.02,270.52L666.63,302.16Z" fill="#080D1B" fill-opacity=".88" stroke="#F8D6A2" stroke-width="2.2" stroke-linejoin="round"/><path d="M785.35,349.95L680.13,311.58L755.30,274.22L850.69,299.89Z" fill="#080D1B" fill-opacity=".88" stroke="#F8D6A2" stroke-width="2.2" stroke-linejoin="round"/><path d="M781.04,378.40L844.79,324.85L850.69,299.89L785.35,349.95Z" fill="#080D1B" fill-opacity=".88" stroke="#F8D6A2" stroke-width="2.2" stroke-linejoin="round"/><path d="M781.04,378.40L680.51,337.45L680.13,311.58L785.35,349.95Z" fill="#080D1B" fill-opacity=".88" stroke="#F8D6A2" stroke-width="2.2" stroke-linejoin="round"/></g>
  <circle cx="78.00" cy="92.00" r="16.900000000000002" fill="#F2A65A" fill-opacity=".18"/><circle cx="78.00" cy="92.00" r="6.5" fill="#F2A65A"/><circle cx="1122.00" cy="92.00" r="16.900000000000002" fill="#F2A65A" fill-opacity=".18"/><circle cx="1122.00" cy="92.00" r="6.5" fill="#F2A65A"/><circle cx="690.00" cy="980.00" r="19.435" fill="#58C6E0" fill-opacity=".18"/><circle cx="690.00" cy="980.00" r="7.475" fill="#58C6E0"/>
</g>
</svg>