<svg xmlns="http://www.w3.org/2000/svg" viewBox="0 0 1200 630" width="1200" height="630">
<defs>
  <linearGradient id="sky" x1="0" y1="0" x2="0" y2="1">
    <stop offset="0" stop-color="#0A0F1E"/><stop offset="1" stop-color="#101B33"/>
  </linearGradient>
  <radialGradient id="glow" cx="0.618" cy="0.146" r=".55">
    <stop offset="0" stop-color="#F2A65A" stop-opacity=".16"/><stop offset="1" stop-color="#F2A65A" stop-opacity="0"/>
  </radialGradient>
</defs>
<rect id="bg" width="1200" height="630" fill="url(#sky)"/>
<rect width="1200" height="630" fill="url(#glow)"/>
<g id="art">
  <g id="grid"><line x1="952.22" y1="942.86" x2="336.41" y2="343.50" stroke="#58C6E0" stroke-opacity=".09" stroke-width="1"/><line x1="984.68" y1="780.19" x2="387.71" y2="327.08" stroke="#58C6E0" stroke-opacity=".09" stroke-width="1"/><line x1="1006.72" y1="669.73" x2="432.72" y2="312.67" stroke="#58C6E0" stroke-opacity=".09" stroke-width="1"/><line x1="1022.66" y1="589.83" x2="472.54" y2="299.92" stroke="#58C6E0" stroke-opacity=".09" stroke-width="1"/><line x1="1034.73" y1="529.35" x2="508.00" y2="288.57" stroke="#58C6E0" stroke-opacity=".09" stroke-width="1"/><line x1="1044.19" y1="481.97" x2="539.80" y2="278.39" stroke="#58C6E0" stroke-opacity=".09" stroke-width="1"/><line x1="1051.79" y1="443.85" x2="568.46" y2="269.21" stroke="#58C6E0" stroke-opacity=".09" stroke-width="1"/><line x1="1058.04" y1="412.52" x2="594.43" y2="260.90" stroke="#58C6E0" stroke-opacity=".09" stroke-width="1"/><line x1="1063.27" y1="386.31" x2="618.07" y2="253.33" stroke="#58C6E0" stroke-opacity=".09" stroke-width="1"/><line x1="1067.71" y1="364.07" x2="639.69" y2="246.41" stroke="#58C6E0" stroke-opacity=".09" stroke-width="1"/><line x1="1071.53" y1="344.95" x2="659.53" y2="240.06" stroke="#58C6E0" stroke-opacity=".09" stroke-width="1"/><line x1="1074.84" y1="328.34" x2="677.80" y2="234.21" stroke="#58C6E0" stroke-opacity=".09" stroke-width="1"/><line x1="1077.75" y1="313.78" x2="694.68" y2="228.80" stroke="#58C6E0" stroke-opacity=".09" stroke-width="1"/><line x1="952.22" y1="942.86" x2="1077.75" y2="313.78" stroke="#58C6E0" stroke-opacity=".09" stroke-width="1"/><line x1="807.37" y1="801.88" x2="1028.54" y2="302.86" stroke="#58C6E0" stroke-opacity=".09" stroke-width="1"/><line x1="703.70" y1="700.98" x2="983.95" y2="292.97" stroke="#58C6E0" stroke-opacity=".09" stroke-width="1"/><line x1="625.83" y1="625.19" x2="943.36" y2="283.97" stroke="#58C6E0" stroke-opacity=".09" stroke-width="1"/><line x1="565.20" y1="566.18" x2="906.25" y2="275.74" stroke="#58C6E0" stroke-opacity=".09" stroke-width="1"/><line x1="516.65" y1="518.93" x2="872.19" y2="268.18" stroke="#58C6E0" stroke-opacity=".09" stroke-width="1"/><line x1="476.90" y1="480.24" x2="840.82" y2="261.22" stroke="#58C6E0" stroke-opacity=".09" stroke-width="1"/><line x1="443.76" y1="447.98" x2="811.84" y2="254.79" stroke="#58C6E0" stroke-opacity=".09" stroke-width="1"/><line x1="415.70" y1="420.67" x2="784.98" y2="248.83" stroke="#58C6E0" stroke-opacity=".09" stroke-width="1"/><line x1="391.64" y1="397.26" x2="760.01" y2="243.29" stroke="#58C6E0" stroke-opacity=".09" stroke-width="1"/><line x1="370.78" y1="376.95" x2="736.75" y2="238.13" stroke="#58C6E0" stroke-opacity=".09" stroke-width="1"/><line x1="352.52" y1="359.18" x2="715.02" y2="233.31" stroke="#58C6E0" stroke-opacity=".09" stroke-width="1"/><line x1="336.41" y1="343.50" x2="694.68" y2="228.80" stroke="#58C6E0" stroke-opacity=".09" stroke-width="1"/></g>
  <g id="roads"></g>
  <g id="guides"><line x1="78.00" y1="92.00" x2="794.66" y2="48.58" stroke="#F2A65A" stroke-opacity=".26" stroke-width="1"/><line x1="78.00" y1="92.00" x2="839.97" y2="52.74" stroke="#F2A65A" stroke-opacity=".26" stroke-width="1"/><line x1="1122.00" y1="92.00" x2="760.41" y2="49.31" stroke="#F2A65A" stroke-opacity=".26" stroke-width="1"/><line x1="1122.00" y1="92.00" x2="693.81" y2="52.74" stroke="#F2A65A" stroke-opacity=".26" stroke-width="1"/><line x1="78.00" y1="92.00" x2="873.94" y2="154.01" stroke="#F2A65A" stroke-opacity=".26" stroke-width="1"/><line x1="78.00" y1="92.00" x2="913.44" y2="147.79" stroke="#F2A65A" stroke-opacity=".26" stroke-width="1"/><line x1="1122.00" y1="92.00" x2="841.08" y2="152.72" stroke="#F2A65A" stroke-opacity=".26" stroke-width="1"/><line x1="1122.00" y1="92.00" x2="767.28" y2="147.79" stroke="#F2A65A" stroke-opacity=".26" stroke-width="1"/><line x1="78.00" y1="92.00" x2="722.80" y2="204.74" stroke="#F2A65A" stroke-opacity=".26" stroke-width="1"/><line x1="78.00" y1="92.00" x2="766.10" y2="195.79" stroke="#F2A65A" stroke-opacity=".26" stroke-width="1"/><line x1="1122.00" y1="92.00" x2="669.13" y2="203.20" stroke="#F2A65A" stroke-opacity=".26" stroke-width="1"/><line x1="1122.00" y1="92.00" x2="619.94" y2="195.79" stroke="#F2A65A" stroke-opacity=".26" stroke-width="1"/><line x1="78.00" y1="92.00" x2="725.81" y2="282.97" stroke="#F2A65A" stroke-opacity=".26" stroke-width="1"/><line x1="78.00" y1="92.00" x2="775.22" y2="265.57" stroke="#F2A65A" stroke-opacity=".26" stroke-width="1"/><line x1="1122.00" y1="92.00" x2="684.62" y2="279.40" stroke="#F2A65A" stroke-opacity=".26" stroke-width="1"/><line x1="1122.00" y1="92.00" x2="629.06" y2="265.57" stroke="#F2A65A" stroke-opacity=".26" stroke-width="1"/><line x1="78.00" y1="92.00" x2="809.59" y2="366.23" stroke="#F2A65A" stroke-opacity=".26" stroke-width="1"/><line x1="78.00" y1="92.00" x2="853.72" y2="339.84" stroke="#F2A65A" stroke-opacity=".26" stroke-width="1"/><line x1="1122.00" y1="92.00" x2="773.24" y2="360.83" stroke="#F2A65A" stroke-opacity=".26" stroke-width="1"/><line x1="1122.00" y1="92.00" x2="707.56" y2="339.84" stroke="#F2A65A" stroke-opacity=".26" stroke-width="1"/><line x1="78.00" y1="92.00" x2="768.90" y2="264.10" stroke="#F2A65A" stroke-opacity=".26" stroke-width="1"/><line x1="78.00" y1="92.00" x2="803.44" y2="252.19" stroke="#F2A65A" stroke-opacity=".26" stroke-width="1"/><line x1="1122.00" y1="92.00" x2="698.67" y2="261.33" stroke="#F2A65A" stroke-opacity=".26" stroke-width="1"/><line x1="1122.00" y1="92.00" x2="657.28" y2="252.19" stroke="#F2A65A" stroke-opacity=".26" stroke-width="1"/><line x1="78.00" y1="92.00" x2="878.51" y2="327.82" stroke="#F2A65A" stroke-opacity=".26" stroke-width="1"/><line x1="78.00" y1="92.00" x2="905.80" y2="311.30" stroke="#F2A65A" stroke-opacity=".26" stroke-width="1"/><line x1="1122.00" y1="92.00" x2="819.63" y2="327.19" stroke="#F2A65A" stroke-opacity=".26" stroke-width="1"/><line x1="1122.00" y1="92.00" x2="759.64" y2="311.30" stroke="#F2A65A" stroke-opacity=".26" stroke-width="1"/><line x1="78.00" y1="92.00" x2="641.16" y2="314.56" stroke="#F2A65A" stroke-opacity=".26" stroke-width="1"/><line x1="78.00" y1="92.00" x2="692.65" y2="296.28" stroke="#F2A65A" stroke-opacity=".26" stroke-width="1"/><line x1="1122.00" y1="92.00" x2="582.99" y2="308.41" stroke="#F2A65A" stroke-opacity=".26" stroke-width="1"/><line x1="1122.00" y1="92.00" x2="546.49" y2="296.28" stroke="#F2A65A" stroke-opacity=".26" stroke-width="1"/></g>
  <g id="nadir-rays"><line x1="690.00" y1="980.00" x2="778.90" y2="-79.97" stroke="#58C6E0" stroke-opacity=".40" stroke-width="1" stroke-dasharray="7 6"/><line x1="690.00" y1="980.00" x2="820.89" y2="-75.01" stroke="#58C6E0" stroke-opacity=".40" stroke-width="1" stroke-dasharray="7 6"/><line x1="690.00" y1="980.00" x2="708.98" y2="-75.74" stroke="#58C6E0" stroke-opacity=".40" stroke-width="1" stroke-dasharray="7 6"/><line x1="690.00" y1="980.00" x2="754.29" y2="-71.58" stroke="#58C6E0" stroke-opacity=".40" stroke-width="1" stroke-dasharray="7 6"/><line x1="690.00" y1="980.00" x2="867.18" y2="35.83" stroke="#58C6E0" stroke-opacity=".40" stroke-width="1" stroke-dasharray="7 6"/><line x1="690.00" y1="980.00" x2="901.56" y2="28.40" stroke="#58C6E0" stroke-opacity=".40" stroke-width="1" stroke-dasharray="7 6"/><line x1="690.00" y1="980.00" x2="788.26" y2="29.69" stroke="#58C6E0" stroke-opacity=".40" stroke-width="1" stroke-dasharray="7 6"/><line x1="690.00" y1="980.00" x2="827.76" y2="23.47" stroke="#58C6E0" stroke-opacity=".40" stroke-width="1" stroke-dasharray="7 6"/><line x1="690.00" y1="980.00" x2="687.49" y2="89.22" stroke="#58C6E0" stroke-opacity=".40" stroke-width="1" stroke-dasharray="7 6"/><line x1="690.00" y1="980.00" x2="729.61" y2="78.88" stroke="#58C6E0" stroke-opacity=".40" stroke-width="1" stroke-dasharray="7 6"/><line x1="690.00" y1="980.00" x2="637.12" y2="80.42" stroke="#58C6E0" stroke-opacity=".40" stroke-width="1" stroke-dasharray="7 6"/><line x1="690.00" y1="980.00" x2="680.42" y2="71.47" stroke="#58C6E0" stroke-opacity=".40" stroke-width="1" stroke-dasharray="7 6"/><line x1="690.00" y1="980.00" x2="697.38" y2="175.53" stroke="#58C6E0" stroke-opacity=".40" stroke-width="1" stroke-dasharray="7 6"/><line x1="690.00" y1="980.00" x2="745.10" y2="155.08" stroke="#58C6E0" stroke-opacity=".40" stroke-width="1" stroke-dasharray="7 6"/><line x1="690.00" y1="980.00" x2="640.13" y2="158.65" stroke="#58C6E0" stroke-opacity=".40" stroke-width="1" stroke-dasharray="7 6"/><line x1="690.00" y1="980.00" x2="689.54" y2="141.25" stroke="#58C6E0" stroke-opacity=".40" stroke-width="1" stroke-dasharray="7 6"/><line x1="690.00" y1="980.00" x2="793.08" y2="267.84" stroke="#58C6E0" stroke-opacity=".40" stroke-width="1" stroke-dasharray="7 6"/><line x1="690.00" y1="980.00" x2="833.72" y2="236.51" stroke="#58C6E0" stroke-opacity=".40" stroke-width="1" stroke-dasharray="7 6"/><line x1="690.00" y1="980.00" x2="723.91" y2="241.91" stroke="#58C6E0" stroke-opacity=".40" stroke-width="1" stroke-dasharray="7 6"/><line x1="690.00" y1="980.00" x2="768.04" y2="215.52" stroke="#58C6E0" stroke-opacity=".40" stroke-width="1" stroke-dasharray="7 6"/><line x1="690.00" y1="980.00" x2="725.75" y2="150.37" stroke="#58C6E0" stroke-opacity=".40" stroke-width="1" stroke-dasharray="7 6"/><line x1="690.00" y1="980.00" x2="759.15" y2="137.01" stroke="#58C6E0" stroke-opacity=".40" stroke-width="1" stroke-dasharray="7 6"/><line x1="690.00" y1="980.00" x2="683.22" y2="139.78" stroke="#58C6E0" stroke-opacity=".40" stroke-width="1" stroke-dasharray="7 6"/><line x1="690.00" y1="980.00" x2="717.76" y2="127.87" stroke="#58C6E0" stroke-opacity=".40" stroke-width="1" stroke-dasharray="7 6"/><line x1="690.00" y1="980.00" x2="855.55" y2="221.97" stroke="#58C6E0" stroke-opacity=".40" stroke-width="1" stroke-dasharray="7 6"/><line x1="690.00" y1="980.00" x2="880.11" y2="202.87" stroke="#58C6E0" stroke-opacity=".40" stroke-width="1" stroke-dasharray="7 6"/><line x1="690.00" y1="980.00" x2="792.83" y2="203.50" stroke="#58C6E0" stroke-opacity=".40" stroke-width="1" stroke-dasharray="7 6"/><line x1="690.00" y1="980.00" x2="820.12" y2="186.98" stroke="#58C6E0" stroke-opacity=".40" stroke-width="1" stroke-dasharray="7 6"/><line x1="690.00" y1="980.00" x2="592.11" y2="204.71" stroke="#58C6E0" stroke-opacity=".40" stroke-width="1" stroke-dasharray="7 6"/><line x1="690.00" y1="980.00" x2="643.47" y2="184.09" stroke="#58C6E0" stroke-opacity=".40" stroke-width="1" stroke-dasharray="7 6"/><line x1="690.00" y1="980.00" x2="555.48" y2="190.24" stroke="#58C6E0" stroke-opacity=".40" stroke-width="1" stroke-dasharray="7 6"/><line x1="690.00" y1="980.00" x2="606.97" y2="171.96" stroke="#58C6E0" stroke-opacity=".40" stroke-width="1" stroke-dasharray="7 6"/></g>
  <line x1="-50.00" y1="92.00" x2="1250.00" y2="92.00" stroke="#F2A65A" stroke-opacity=".70" stroke-width="1.2"/>
  <g id="boxes"><path d="M721.36,252.25L684.05,242.96L714.35,232.52L750.65,240.54Z" fill="#080D1B" fill-opacity=".88" stroke="#F8D6A2" stroke-width="2.2" stroke-linejoin="round"/><path d="M718.38,321.46L745.27,306.17L750.65,240.54L721.36,252.25Z" fill="#080D1B" fill-opacity=".88" stroke="#F8D6A2" stroke-width="2.2" stroke-linejoin="round"/><path d="M718.38,321.46L684.59,309.35L684.05,242.96L721.36,252.25Z" fill="#080D1B" fill-opacity=".88" stroke="#F8D6A2" stroke-width="2.2" stroke-linejoin="round"/><path d="M604.13,299.92L572.00,287.23L617.17,271.20L649.18,281.84Z" fill="#080D1B" fill-opacity=".88" stroke="#F8D6A2" stroke-width="2.2" stroke-linejoin="round"/><path d="M609.57,342.98L651.56,322.42L649.18,281.84L604.13,299.92Z" fill="#080D1B" fill-opacity=".88" stroke="#F8D6A2" stroke-width="2.2" stroke-linejoin="round"/><path d="M609.57,342.98L579.04,328.57L572.00,287.23L604.13,299.92Z" fill="#080D1B" fill-opacity=".88" stroke="#F8D6A2" stroke-width="2.2" stroke-linejoin="round"/><path d="M835.22,315.06L780.20,298.86L804.14,284.37L856.76,298.31Z" fill="#080D1B" fill-opacity=".88" stroke="#F8D6A2" stroke-width="2.2" stroke-linejoin="round"/><path d="M827.82,348.92L848.88,330.54L856.76,298.31L835.22,315.06Z" fill="#080D1B" fill-opacity=".88" stroke="#F8D6A2" stroke-width="2.2" stroke-linejoin="round"/><path d="M827.82,348.92L775.93,331.14L780.20,298.86L835.22,315.06Z" fill="#080D1B" fill-opacity=".88" stroke="#F8D6A2" stroke-width="2.2" stroke-linejoin="round"/><path d="M687.80,198.62L643.61,190.89L681.60,183.04L724.74,189.55Z" fill="#080D1B" fill-opacity=".88" stroke="#F8D6A2" stroke-width="2.2" stroke-linejoin="round"/><path d="M688.21,344.19L718.72,326.45L724.74,189.55L687.80,198.62Z" fill="#080D1B" fill-opacity=".88" stroke="#F8D6A2" stroke-width="2.2" stroke-linejoin="round"/><path d="M688.21,344.19L651.74,329.12L643.61,190.89L687.80,198.62Z" fill="#080D1B" fill-opacity=".88" stroke="#F8D6A2" stroke-width="2.2" stroke-linejoin="round"/><path d="M696.48,274.32L646.25,259.52L689.59,244.25L738.33,256.39Z" fill="#080D1B" fill-opacity=".88" stroke="#F8D6A2" stroke-width="2.2" stroke-linejoin="round"/><path d="M695.44,386.76L731.28,361.99L738.33,256.39L696.48,274.32Z" fill="#080D1B" fill-opacity=".88" stroke="#F8D6A2" stroke-width="2.2" stroke-linejoin="round"/><path d="M695.44,386.76L652.74,366.37L646.25,259.52L696.48,274.32Z" fill="#080D1B" fill-opacity=".88" stroke="#F8D6A2" stroke-width="2.2" stroke-linejoin="round"/><path d="M780.42,355.30L719.74,332.56L758.45,309.41L816.07,327.82Z" fill="#080D1B" fill-opacity=".88" stroke="#F8D6A2" stroke-width="2.2" stroke-linejoin="round"/><path d="M771.40,417.60L804.69,386.68L816.07,327.82L780.42,355.30Z" fill="#080D1B" fill-opacity=".88" stroke="#F8D6A2" stroke-width="2.2" stroke-linejoin="round"/><path d="M771.40,417.60L717.01,392.06L719.74,332.56L780.42,355.30Z" fill="#080D1B" fill-opacity=".88" stroke="#F8D6A2" stroke-width="2.2" stroke-linejoin="round"/><path d="M845.42,151.78L776.20,146.39L810.84,140.94L875.58,145.26Z" fill="#080D1B" fill-opacity=".88" stroke="#F8D6A2" stroke-width="2.2" stroke-linejoin="round"/><path d="M802.98,377.92L829.05,354.56L875.58,145.26L845.42,151.78Z" fill="#080D1B" fill-opacity=".88" stroke="#F8D6A2" stroke-width="2.2" stroke-linejoin="round"/><path d="M802.98,377.92L754.24,358.70L776.20,146.39L845.42,151.78Z" fill="#080D1B" fill-opacity=".88" stroke="#F8D6A2" stroke-width="2.2" stroke-linejoin="round"/><path d="M742.00,360.00L769.31,340.74L804.81,54.55L767.98,50.20Z" fill="#080D1B" fill-opacity=".88" stroke="#F8D6A2" stroke-width="2.2" stroke-linejoin="round"/><path d="M742.00,360.00L701.44,343.63L706.65,53.92L767.98,50.20Z" fill="#080D1B" fill-opacity=".88" stroke="#F8D6A2" stroke-width="2.2" stroke-linejoin="round"/></g>
  <circle cx="78.00" cy="92.00" r="16.900000000000002" fill="#F2A65A" fill-opacity=".18"/><circle cx="78.00" cy="92.00" r="6.5" fill="#F2A65A"/><circle cx="1122.00" cy="92.00" r="16.900000000000002" fill="#F2A65A" fill-opacity=".18"/><circle cx="1122.00" cy="92.00" r="6.5" fill="#F2A65A"/><circle cx="690.00" cy="980.00" r="19.435" fill="#58C6E0" fill-opacity=".18"/><circle cx="690.00" cy="980.00" r="7.475" fill="#58C6E0"/>
</g>
</svg>