<svg xmlns="http://www.w3.org/2000/svg" viewBox="0 0 1200 630" width="1200" height="630">
<defs>
  <linearGradient id="sky" x1="0" y1="0" x2="0" y2="1">
    <stop offset="0" stop-color="#0A0F1E"/><stop offset="1" stop-color="#101B33"/>
  </linearGradient>
  <radialGradient id="glow" cx="0.500" cy="0.143" r=".55">
    <stop offset="0" stop-color="#F2A65A" stop-opacity=".16"/><stop offset="1" stop-color="#F2A65A" stop-opacity="0"/>
  </radialGradient>
</defs>
<rect id="bg" x="0" y="0" width="1200" height="630" fill="url(#sky)"/>
<rect x="0" y="0" width="1200" height="630" fill="url(#glow)"/>
<g id="art">
  <g id="grid"><line x1="351.10" y1="1016.67" x2="269.70" y2="325.25" stroke="#58C6E0" stroke-opacity=".09" stroke-width="1"/><line x1="567.95" y1="1016.67" x2="318.84" y2="308.46" stroke="#58C6E0" stroke-opacity=".09" stroke-width="1"/><line x1="784.80" y1="1016.67" x2="361.43" y2="293.90" stroke="#58C6E0" stroke-opacity=".09" stroke-width="1"/><line x1="868.08" y1="853.74" x2="398.70" y2="281.16" stroke="#58C6E0" stroke-opacity=".09" stroke-width="1"/><line x1="886.04" y1="701.18" x2="431.59" y2="269.92" stroke="#58C6E0" stroke-opacity=".09" stroke-width="1"/><line x1="898.02" y1="599.42" x2="460.83" y2="259.93" stroke="#58C6E0" stroke-opacity=".09" stroke-width="1"/><line x1="906.58" y1="526.71" x2="486.98" y2="250.99" stroke="#58C6E0" stroke-opacity=".09" stroke-width="1"/><line x1="913.00" y1="472.17" x2="510.53" y2="242.94" stroke="#58C6E0" stroke-opacity=".09" stroke-width="1"/><line x1="918.00" y1="429.73" x2="531.83" y2="235.66" stroke="#58C6E0" stroke-opacity=".09" stroke-width="1"/><line x1="922.00" y1="395.78" x2="551.20" y2="229.04" stroke="#58C6E0" stroke-opacity=".09" stroke-width="1"/><line x1="925.27" y1="368.00" x2="568.88" y2="223.00" stroke="#58C6E0" stroke-opacity=".09" stroke-width="1"/><line x1="928.00" y1="344.85" x2="585.09" y2="217.46" stroke="#58C6E0" stroke-opacity=".09" stroke-width="1"/><line x1="930.30" y1="325.25" x2="600.00" y2="212.36" stroke="#58C6E0" stroke-opacity=".09" stroke-width="1"/><line x1="848.90" y1="1016.67" x2="930.30" y2="325.25" stroke="#58C6E0" stroke-opacity=".09" stroke-width="1"/><line x1="632.05" y1="1016.67" x2="881.16" y2="308.46" stroke="#58C6E0" stroke-opacity=".09" stroke-width="1"/><line x1="415.20" y1="1016.67" x2="838.57" y2="293.90" stroke="#58C6E0" stroke-opacity=".09" stroke-width="1"/><line x1="331.92" y1="853.74" x2="801.30" y2="281.16" stroke="#58C6E0" stroke-opacity=".09" stroke-width="1"/><line x1="313.96" y1="701.18" x2="768.41" y2="269.92" stroke="#58C6E0" stroke-opacity=".09" stroke-width="1"/><line x1="301.98" y1="599.42" x2="739.17" y2="259.93" stroke="#58C6E0" stroke-opacity=".09" stroke-width="1"/><line x1="293.42" y1="526.71" x2="713.02" y2="250.99" stroke="#58C6E0" stroke-opacity=".09" stroke-width="1"/><line x1="287.00" y1="472.17" x2="689.47" y2="242.94" stroke="#58C6E0" stroke-opacity=".09" stroke-width="1"/><line x1="282.00" y1="429.73" x2="668.17" y2="235.66" stroke="#58C6E0" stroke-opacity=".09" stroke-width="1"/><line x1="278.00" y1="395.78" x2="648.80" y2="229.04" stroke="#58C6E0" stroke-opacity=".09" stroke-width="1"/><line x1="274.73" y1="368.00" x2="631.12" y2="223.00" stroke="#58C6E0" stroke-opacity=".09" stroke-width="1"/><line x1="272.00" y1="344.85" x2="614.91" y2="217.46" stroke="#58C6E0" stroke-opacity=".09" stroke-width="1"/><line x1="269.70" y1="325.25" x2="600.00" y2="212.36" stroke="#58C6E0" stroke-opacity=".09" stroke-width="1"/></g>
  <g id="roads"></g>
  <g id="guides"><line x1="242.00" y1="90.00" x2="573.47" y2="41.87" stroke="#F2A65A" stroke-opacity=".26" stroke-width="1"/><line x1="242.00" y1="90.00" x2="650.12" y2="49.48" stroke="#F2A65A" stroke-opacity=".26" stroke-width="1"/><line x1="958.00" y1="90.00" x2="626.53" y2="41.87" stroke="#F2A65A" stroke-opacity=".26" stroke-width="1"/><line x1="958.00" y1="90.00" x2="549.88" y2="49.48" stroke="#F2A65A" stroke-opacity=".26" stroke-width="1"/><line x1="242.00" y1="90.00" x2="674.42" y2="189.91" stroke="#F2A65A" stroke-opacity=".26" stroke-width="1"/><line x1="242.00" y1="90.00" x2="734.40" y2="174.30" stroke="#F2A65A" stroke-opacity=".26" stroke-width="1"/><line x1="958.00" y1="90.00" x2="721.53" y2="189.26" stroke="#F2A65A" stroke-opacity=".26" stroke-width="1"/><line x1="958.00" y1="90.00" x2="634.16" y2="174.30" stroke="#F2A65A" stroke-opacity=".26" stroke-width="1"/><line x1="242.00" y1="90.00" x2="539.04" y2="225.78" stroke="#F2A65A" stroke-opacity=".26" stroke-width="1"/><line x1="242.00" y1="90.00" x2="593.28" y2="211.59" stroke="#F2A65A" stroke-opacity=".26" stroke-width="1"/><line x1="958.00" y1="90.00" x2="534.01" y2="225.78" stroke="#F2A65A" stroke-opacity=".26" stroke-width="1"/><line x1="958.00" y1="90.00" x2="493.04" y2="211.59" stroke="#F2A65A" stroke-opacity=".26" stroke-width="1"/><line x1="242.00" y1="90.00" x2="522.46" y2="320.34" stroke="#F2A65A" stroke-opacity=".26" stroke-width="1"/><line x1="242.00" y1="90.00" x2="587.85" y2="292.22" stroke="#F2A65A" stroke-opacity=".26" stroke-width="1"/><line x1="958.00" y1="90.00" x2="533.75" y2="319.20" stroke="#F2A65A" stroke-opacity=".26" stroke-width="1"/><line x1="958.00" y1="90.00" x2="487.61" y2="292.22" stroke="#F2A65A" stroke-opacity=".26" stroke-width="1"/><line x1="242.00" y1="90.00" x2="602.73" y2="413.51" stroke="#F2A65A" stroke-opacity=".26" stroke-width="1"/><line x1="242.00" y1="90.00" x2="660.90" y2="372.19" stroke="#F2A65A" stroke-opacity=".26" stroke-width="1"/><line x1="958.00" y1="90.00" x2="619.59" y2="411.89" stroke="#F2A65A" stroke-opacity=".26" stroke-width="1"/><line x1="958.00" y1="90.00" x2="560.66" y2="372.19" stroke="#F2A65A" stroke-opacity=".26" stroke-width="1"/><line x1="242.00" y1="90.00" x2="605.20" y2="271.00" stroke="#F2A65A" stroke-opacity=".26" stroke-width="1"/><line x1="242.00" y1="90.00" x2="642.85" y2="255.96" stroke="#F2A65A" stroke-opacity=".26" stroke-width="1"/><line x1="958.00" y1="90.00" x2="576.13" y2="269.84" stroke="#F2A65A" stroke-opacity=".26" stroke-width="1"/><line x1="958.00" y1="90.00" x2="542.61" y2="255.96" stroke="#F2A65A" stroke-opacity=".26" stroke-width="1"/><line x1="242.00" y1="90.00" x2="699.34" y2="338.91" stroke="#F2A65A" stroke-opacity=".26" stroke-width="1"/><line x1="242.00" y1="90.00" x2="729.89" y2="317.73" stroke="#F2A65A" stroke-opacity=".26" stroke-width="1"/><line x1="958.00" y1="90.00" x2="682.49" y2="342.39" stroke="#F2A65A" stroke-opacity=".26" stroke-width="1"/><line x1="958.00" y1="90.00" x2="629.65" y2="317.73" stroke="#F2A65A" stroke-opacity=".26" stroke-width="1"/><line x1="242.00" y1="90.00" x2="486.14" y2="316.33" stroke="#F2A65A" stroke-opacity=".26" stroke-width="1"/><line x1="242.00" y1="90.00" x2="541.09" y2="294.59" stroke="#F2A65A" stroke-opacity=".26" stroke-width="1"/><line x1="958.00" y1="90.00" x2="466.17" y2="311.91" stroke="#F2A65A" stroke-opacity=".26" stroke-width="1"/><line x1="958.00" y1="90.00" x2="440.85" y2="294.59" stroke="#F2A65A" stroke-opacity=".26" stroke-width="1"/></g>
  <g id="nadir-rays"><line x1="600.00" y1="596.00" x2="600.00" y2="-40.10" stroke="#58C6E0" stroke-opacity=".40" stroke-width="1" stroke-dasharray="7 6"/><line x1="600.00" y1="596.00" x2="676.65" y2="-28.97" stroke="#58C6E0" stroke-opacity=".40" stroke-width="1" stroke-dasharray="7 6"/><line x1="600.00" y1="596.00" x2="523.35" y2="-28.97" stroke="#58C6E0" stroke-opacity=".40" stroke-width="1" stroke-dasharray="7 6"/><line x1="600.00" y1="596.00" x2="600.00" y2="-21.36" stroke="#58C6E0" stroke-opacity=".40" stroke-width="1" stroke-dasharray="7 6"/><line x1="600.00" y1="596.00" x2="718.33" y2="140.80" stroke="#58C6E0" stroke-opacity=".40" stroke-width="1" stroke-dasharray="7 6"/><line x1="600.00" y1="596.00" x2="771.65" y2="118.42" stroke="#58C6E0" stroke-opacity=".40" stroke-width="1" stroke-dasharray="7 6"/><line x1="600.00" y1="596.00" x2="624.30" y2="119.07" stroke="#58C6E0" stroke-opacity=".40" stroke-width="1" stroke-dasharray="7 6"/><line x1="600.00" y1="596.00" x2="684.28" y2="103.46" stroke="#58C6E0" stroke-opacity=".40" stroke-width="1" stroke-dasharray="7 6"/><line x1="600.00" y1="596.00" x2="528.14" y2="172.87" stroke="#58C6E0" stroke-opacity=".40" stroke-width="1" stroke-dasharray="7 6"/><line x1="600.00" y1="596.00" x2="584.13" y2="154.94" stroke="#58C6E0" stroke-opacity=".40" stroke-width="1" stroke-dasharray="7 6"/><line x1="600.00" y1="596.00" x2="488.92" y2="154.94" stroke="#58C6E0" stroke-opacity=".40" stroke-width="1" stroke-dasharray="7 6"/><line x1="600.00" y1="596.00" x2="543.16" y2="140.75" stroke="#58C6E0" stroke-opacity=".40" stroke-width="1" stroke-dasharray="7 6"/><line x1="600.00" y1="596.00" x2="515.76" y2="285.16" stroke="#58C6E0" stroke-opacity=".40" stroke-width="1" stroke-dasharray="7 6"/><line x1="600.00" y1="596.00" x2="583.87" y2="248.36" stroke="#58C6E0" stroke-opacity=".40" stroke-width="1" stroke-dasharray="7 6"/><line x1="600.00" y1="596.00" x2="472.34" y2="249.50" stroke="#58C6E0" stroke-opacity=".40" stroke-width="1" stroke-dasharray="7 6"/><line x1="600.00" y1="596.00" x2="537.73" y2="221.38" stroke="#58C6E0" stroke-opacity=".40" stroke-width="1" stroke-dasharray="7 6"/><line x1="600.00" y1="596.00" x2="612.00" y2="395.94" stroke="#58C6E0" stroke-opacity=".40" stroke-width="1" stroke-dasharray="7 6"/><line x1="600.00" y1="596.00" x2="669.71" y2="341.05" stroke="#58C6E0" stroke-opacity=".40" stroke-width="1" stroke-dasharray="7 6"/><line x1="600.00" y1="596.00" x2="552.61" y2="342.67" stroke="#58C6E0" stroke-opacity=".40" stroke-width="1" stroke-dasharray="7 6"/><line x1="600.00" y1="596.00" x2="610.78" y2="301.35" stroke="#58C6E0" stroke-opacity=".40" stroke-width="1" stroke-dasharray="7 6"/><line x1="600.00" y1="596.00" x2="588.46" y2="216.80" stroke="#58C6E0" stroke-opacity=".40" stroke-width="1" stroke-dasharray="7 6"/><line x1="600.00" y1="596.00" x2="626.25" y2="199.00" stroke="#58C6E0" stroke-opacity=".40" stroke-width="1" stroke-dasharray="7 6"/><line x1="600.00" y1="596.00" x2="555.08" y2="200.16" stroke="#58C6E0" stroke-opacity=".40" stroke-width="1" stroke-dasharray="7 6"/><line x1="600.00" y1="596.00" x2="592.73" y2="185.12" stroke="#58C6E0" stroke-opacity=".40" stroke-width="1" stroke-dasharray="7 6"/><line x1="600.00" y1="596.00" x2="703.91" y2="297.84" stroke="#58C6E0" stroke-opacity=".40" stroke-width="1" stroke-dasharray="7 6"/><line x1="600.00" y1="596.00" x2="732.61" y2="271.55" stroke="#58C6E0" stroke-opacity=".40" stroke-width="1" stroke-dasharray="7 6"/><line x1="600.00" y1="596.00" x2="649.22" y2="268.07" stroke="#58C6E0" stroke-opacity=".40" stroke-width="1" stroke-dasharray="7 6"/><line x1="600.00" y1="596.00" x2="679.77" y2="246.89" stroke="#58C6E0" stroke-opacity=".40" stroke-width="1" stroke-dasharray="7 6"/><line x1="600.00" y1="596.00" x2="459.09" y2="266.88" stroke="#58C6E0" stroke-opacity=".40" stroke-width="1" stroke-dasharray="7 6"/><line x1="600.00" y1="596.00" x2="516.29" y2="241.07" stroke="#58C6E0" stroke-opacity=".40" stroke-width="1" stroke-dasharray="7 6"/><line x1="600.00" y1="596.00" x2="436.02" y2="245.49" stroke="#58C6E0" stroke-opacity=".40" stroke-width="1" stroke-dasharray="7 6"/><line x1="600.00" y1="596.00" x2="490.97" y2="223.75" stroke="#58C6E0" stroke-opacity=".40" stroke-width="1" stroke-dasharray="7 6"/></g>
  <line x1="-50.00" y1="90.00" x2="1250.00" y2="90.00" stroke="#F2A65A" stroke-opacity=".70" stroke-width="1.2"/>
  <g id="boxes"><path d="M589.88,263.36L560.60,248.77L593.62,235.58L623.03,247.75Z" fill="#080D1B" fill-opacity=".88" stroke="#F8D6A2" stroke-width="2.2" stroke-linejoin="round"/><path d="M591.51,316.88L619.61,299.48L623.03,247.75L589.88,263.36Z" fill="#080D1B" fill-opacity=".88" stroke="#F8D6A2" stroke-width="2.2" stroke-linejoin="round"/><path d="M591.51,316.88L566.48,300.64L560.60,248.77L589.88,263.36Z" fill="#080D1B" fill-opacity=".88" stroke="#F8D6A2" stroke-width="2.2" stroke-linejoin="round"/><path d="M476.39,307.30L456.15,288.54L504.36,269.47L526.57,284.66Z" fill="#080D1B" fill-opacity=".88" stroke="#F8D6A2" stroke-width="2.2" stroke-linejoin="round"/><path d="M489.63,338.23L533.70,314.88L526.57,284.66L476.39,307.30Z" fill="#080D1B" fill-opacity=".88" stroke="#F8D6A2" stroke-width="2.2" stroke-linejoin="round"/><path d="M489.63,338.23L470.37,318.92L456.15,288.54L476.39,307.30Z" fill="#080D1B" fill-opacity=".88" stroke="#F8D6A2" stroke-width="2.2" stroke-linejoin="round"/><path d="M691.15,334.46L643.17,308.35L669.97,289.76L716.32,311.40Z" fill="#080D1B" fill-opacity=".88" stroke="#F8D6A2" stroke-width="2.2" stroke-linejoin="round"/><path d="M682.86,358.25L706.66,335.05L716.32,311.40L691.15,334.46Z" fill="#080D1B" fill-opacity=".88" stroke="#F8D6A2" stroke-width="2.2" stroke-linejoin="round"/><path d="M682.86,358.25L639.63,331.95L643.17,308.35L691.15,334.46Z" fill="#080D1B" fill-opacity=".88" stroke="#F8D6A2" stroke-width="2.2" stroke-linejoin="round"/><path d="M536.97,224.83L502.56,209.10L550.14,196.66L586.08,209.10Z" fill="#080D1B" fill-opacity=".88" stroke="#F8D6A2" stroke-width="2.2" stroke-linejoin="round"/><path d="M557.21,344.00L590.18,323.10L586.08,209.10L536.97,224.83Z" fill="#080D1B" fill-opacity=".88" stroke="#F8D6A2" stroke-width="2.2" stroke-linejoin="round"/><path d="M557.21,344.00L531.27,323.10L502.56,209.10L536.97,224.83Z" fill="#080D1B" fill-opacity=".88" stroke="#F8D6A2" stroke-width="2.2" stroke-linejoin="round"/><path d="M526.10,323.33L488.02,292.05L545.38,267.39L585.85,291.05Z" fill="#080D1B" fill-opacity=".88" stroke="#F8D6A2" stroke-width="2.2" stroke-linejoin="round"/><path d="M547.43,402.02L589.52,370.04L585.85,291.05L526.10,323.33Z" fill="#080D1B" fill-opacity=".88" stroke="#F8D6A2" stroke-width="2.2" stroke-linejoin="round"/><path d="M547.43,402.02L517.13,371.06L488.02,292.05L526.10,323.33Z" fill="#080D1B" fill-opacity=".88" stroke="#F8D6A2" stroke-width="2.2" stroke-linejoin="round"/><path d="M610.53,420.50L558.43,373.78L609.46,337.54L661.15,372.36Z" fill="#080D1B" fill-opacity=".88" stroke="#F8D6A2" stroke-width="2.2" stroke-linejoin="round"/><path d="M608.52,453.98L650.90,409.85L661.15,372.36L610.53,420.50Z" fill="#080D1B" fill-opacity=".88" stroke="#F8D6A2" stroke-width="2.2" stroke-linejoin="round"/><path d="M608.52,453.98L565.43,411.19L558.43,373.78L610.53,420.50Z" fill="#080D1B" fill-opacity=".88" stroke="#F8D6A2" stroke-width="2.2" stroke-linejoin="round"/><path d="M703.80,196.70L621.31,177.64L673.93,163.95L750.57,177.07Z" fill="#080D1B" fill-opacity=".88" stroke="#F8D6A2" stroke-width="2.2" stroke-linejoin="round"/><path d="M651.73,397.01L682.67,365.99L750.57,177.07L703.80,196.70Z" fill="#080D1B" fill-opacity=".88" stroke="#F8D6A2" stroke-width="2.2" stroke-linejoin="round"/><path d="M651.73,397.01L611.67,366.99L621.31,177.64L703.80,196.70Z" fill="#080D1B" fill-opacity=".88" stroke="#F8D6A2" stroke-width="2.2" stroke-linejoin="round"/><path d="M600.00,368.00L630.91,344.00L667.24,47.78L600.00,38.02Z" fill="#080D1B" fill-opacity=".88" stroke="#F8D6A2" stroke-width="2.2" stroke-linejoin="round"/><path d="M600.00,368.00L569.09,344.00L532.76,47.78L600.00,38.02Z" fill="#080D1B" fill-opacity=".88" stroke="#F8D6A2" stroke-width="2.2" stroke-linejoin="round"/></g>
  <circle cx="242.00" cy="90.00" r="16.900000000000002" fill="#F2A65A" fill-opacity=".18"/><circle cx="242.00" cy="90.00" r="6.5" fill="#F2A65A"/><circle cx="958.00" cy="90.00" r="16.900000000000002" fill="#F2A65A" fill-opacity=".18"/><circle cx="958.00" cy="90.00" r="6.5" fill="#F2A65A"/><circle cx="600.00" cy="596.00" r="19.435" fill="#58C6E0" fill-opacity=".18"/><circle cx="600.00" cy="596.00" r="7.475" fill="#58C6E0"/>
</g>
</svg>