<svg xmlns="http://www.w3.org/2000/svg" viewBox="0 0 1200 630" width="1200" height="630">
<defs>
  <linearGradient id="sky" x1="0" y1="0" x2="0" y2="1">
    <stop offset="0" stop-color="#0A0F1E"/><stop offset="1" stop-color="#101B33"/>
  </linearGradient>
  <radialGradient id="glow" cx="0.635" cy="0.140" r=".55">
    <stop offset="0" stop-color="#F2A65A" stop-opacity=".16"/><stop offset="1" stop-color="#F2A65A" stop-opacity="0"/>
  </radialGradient>
</defs>
<rect id="bg" width="1200" height="630" fill="url(#sky)"/>
<rect width="1200" height="630" fill="url(#glow)"/>
<g id="art">
  <g id="grid"><line x1="513.10" y1="781.33" x2="431.70" y2="264.02" stroke="#58C6E0" stroke-opacity=".16" stroke-width="1"/><line x1="729.95" y1="781.33" x2="480.84" y2="251.45" stroke="#58C6E0" stroke-opacity=".16" stroke-width="1"/><line x1="946.80" y1="781.33" x2="523.43" y2="240.56" stroke="#58C6E0" stroke-opacity=".16" stroke-width="1"/><line x1="1030.08" y1="659.43" x2="560.70" y2="231.03" stroke="#58C6E0" stroke-opacity=".16" stroke-width="1"/><line x1="1048.04" y1="545.29" x2="593.59" y2="222.62" stroke="#58C6E0" stroke-opacity=".16" stroke-width="1"/><line x1="1060.02" y1="469.15" x2="622.83" y2="215.14" stroke="#58C6E0" stroke-opacity=".16" stroke-width="1"/><line x1="1068.58" y1="414.75" x2="648.98" y2="208.45" stroke="#58C6E0" stroke-opacity=".16" stroke-width="1"/><line x1="1075.00" y1="373.94" x2="672.53" y2="202.43" stroke="#58C6E0" stroke-opacity=".16" stroke-width="1"/><line x1="1080.00" y1="342.19" x2="693.83" y2="196.98" stroke="#58C6E0" stroke-opacity=".16" stroke-width="1"/><line x1="1084.00" y1="316.79" x2="713.20" y2="192.03" stroke="#58C6E0" stroke-opacity=".16" stroke-width="1"/><line x1="1087.27" y1="296.00" x2="730.88" y2="187.51" stroke="#58C6E0" stroke-opacity=".16" stroke-width="1"/><line x1="1090.00" y1="278.68" x2="747.09" y2="183.36" stroke="#58C6E0" stroke-opacity=".16" stroke-width="1"/><line x1="1092.30" y1="264.02" x2="762.00" y2="179.55" stroke="#58C6E0" stroke-opacity=".16" stroke-width="1"/><line x1="1010.90" y1="781.33" x2="1092.30" y2="264.02" stroke="#58C6E0" stroke-opacity=".16" stroke-width="1"/><line x1="794.05" y1="781.33" x2="1043.16" y2="251.45" stroke="#58C6E0" stroke-opacity=".16" stroke-width="1"/><line x1="577.20" y1="781.33" x2="1000.57" y2="240.56" stroke="#58C6E0" stroke-opacity=".16" stroke-width="1"/><line x1="493.92" y1="659.43" x2="963.30" y2="231.03" stroke="#58C6E0" stroke-opacity=".16" stroke-width="1"/><line x1="475.96" y1="545.29" x2="930.41" y2="222.62" stroke="#58C6E0" stroke-opacity=".16" stroke-width="1"/><line x1="463.98" y1="469.15" x2="901.17" y2="215.14" stroke="#58C6E0" stroke-opacity=".16" stroke-width="1"/><line x1="455.42" y1="414.75" x2="875.02" y2="208.45" stroke="#58C6E0" stroke-opacity=".16" stroke-width="1"/><line x1="449.00" y1="373.94" x2="851.47" y2="202.43" stroke="#58C6E0" stroke-opacity=".16" stroke-width="1"/><line x1="444.00" y1="342.19" x2="830.17" y2="196.98" stroke="#58C6E0" stroke-opacity=".16" stroke-width="1"/><line x1="440.00" y1="316.79" x2="810.80" y2="192.03" stroke="#58C6E0" stroke-opacity=".16" stroke-width="1"/><line x1="436.73" y1="296.00" x2="793.12" y2="187.51" stroke="#58C6E0" stroke-opacity=".16" stroke-width="1"/><line x1="434.00" y1="278.68" x2="776.91" y2="183.36" stroke="#58C6E0" stroke-opacity=".16" stroke-width="1"/><line x1="431.70" y1="264.02" x2="762.00" y2="179.55" stroke="#58C6E0" stroke-opacity=".16" stroke-width="1"/></g>
  <g id="guides"><line x1="404.00" y1="88.00" x2="727.27" y2="186.18" stroke="#F2A65A" stroke-opacity=".26" stroke-width="1"/><line x1="404.00" y1="88.00" x2="812.12" y2="169.28" stroke="#F2A65A" stroke-opacity=".26" stroke-width="1"/><line x1="1120.00" y1="88.00" x2="801.66" y2="187.16" stroke="#F2A65A" stroke-opacity=".26" stroke-width="1"/><line x1="1120.00" y1="88.00" x2="711.88" y2="169.28" stroke="#F2A65A" stroke-opacity=".26" stroke-width="1"/><line x1="404.00" y1="88.00" x2="832.90" y2="289.97" stroke="#F2A65A" stroke-opacity=".26" stroke-width="1"/><line x1="404.00" y1="88.00" x2="895.69" y2="257.23" stroke="#F2A65A" stroke-opacity=".26" stroke-width="1"/><line x1="1120.00" y1="88.00" x2="896.62" y2="292.05" stroke="#F2A65A" stroke-opacity=".26" stroke-width="1"/><line x1="1120.00" y1="88.00" x2="795.45" y2="257.23" stroke="#F2A65A" stroke-opacity=".26" stroke-width="1"/><line x1="404.00" y1="88.00" x2="630.76" y2="298.86" stroke="#F2A65A" stroke-opacity=".26" stroke-width="1"/><line x1="404.00" y1="88.00" x2="733.91" y2="261.97" stroke="#F2A65A" stroke-opacity=".26" stroke-width="1"/><line x1="1120.00" y1="88.00" x2="707.72" y2="301.01" stroke="#F2A65A" stroke-opacity=".26" stroke-width="1"/><line x1="1120.00" y1="88.00" x2="633.67" y2="261.97" stroke="#F2A65A" stroke-opacity=".26" stroke-width="1"/><line x1="404.00" y1="88.00" x2="696.35" y2="220.87" stroke="#F2A65A" stroke-opacity=".26" stroke-width="1"/><line x1="404.00" y1="88.00" x2="765.77" y2="203.27" stroke="#F2A65A" stroke-opacity=".26" stroke-width="1"/><line x1="1120.00" y1="88.00" x2="714.81" y2="218.97" stroke="#F2A65A" stroke-opacity=".26" stroke-width="1"/><line x1="1120.00" y1="88.00" x2="665.53" y2="203.27" stroke="#F2A65A" stroke-opacity=".26" stroke-width="1"/><line x1="404.00" y1="88.00" x2="716.07" y2="366.02" stroke="#F2A65A" stroke-opacity=".26" stroke-width="1"/><line x1="404.00" y1="88.00" x2="824.04" y2="306.48" stroke="#F2A65A" stroke-opacity=".26" stroke-width="1"/><line x1="1120.00" y1="88.00" x2="819.11" y2="356.06" stroke="#F2A65A" stroke-opacity=".26" stroke-width="1"/><line x1="1120.00" y1="88.00" x2="723.80" y2="306.48" stroke="#F2A65A" stroke-opacity=".26" stroke-width="1"/><line x1="404.00" y1="88.00" x2="622.25" y2="267.95" stroke="#F2A65A" stroke-opacity=".26" stroke-width="1"/><line x1="404.00" y1="88.00" x2="700.04" y2="244.55" stroke="#F2A65A" stroke-opacity=".26" stroke-width="1"/><line x1="1120.00" y1="88.00" x2="635.79" y2="263.58" stroke="#F2A65A" stroke-opacity=".26" stroke-width="1"/><line x1="1120.00" y1="88.00" x2="599.80" y2="244.55" stroke="#F2A65A" stroke-opacity=".26" stroke-width="1"/></g>
  <g id="nadir-rays"><line x1="762.00" y1="594.00" x2="767.17" y2="142.68" stroke="#58C6E0" stroke-opacity=".40" stroke-width="1" stroke-dasharray="7 6"/><line x1="762.00" y1="594.00" x2="851.78" y2="116.32" stroke="#58C6E0" stroke-opacity=".40" stroke-width="1" stroke-dasharray="7 6"/><line x1="762.00" y1="594.00" x2="677.15" y2="115.34" stroke="#58C6E0" stroke-opacity=".40" stroke-width="1" stroke-dasharray="7 6"/><line x1="762.00" y1="594.00" x2="762.00" y2="98.44" stroke="#58C6E0" stroke-opacity=".40" stroke-width="1" stroke-dasharray="7 6"/><line x1="762.00" y1="594.00" x2="892.47" y2="270.78" stroke="#58C6E0" stroke-opacity=".40" stroke-width="1" stroke-dasharray="7 6"/><line x1="762.00" y1="594.00" x2="946.74" y2="221.21" stroke="#58C6E0" stroke-opacity=".40" stroke-width="1" stroke-dasharray="7 6"/><line x1="762.00" y1="594.00" x2="782.78" y2="219.13" stroke="#58C6E0" stroke-opacity=".40" stroke-width="1" stroke-dasharray="7 6"/><line x1="762.00" y1="594.00" x2="845.57" y2="186.39" stroke="#58C6E0" stroke-opacity=".40" stroke-width="1" stroke-dasharray="7 6"/><line x1="762.00" y1="594.00" x2="645.42" y2="288.26" stroke="#58C6E0" stroke-opacity=".40" stroke-width="1" stroke-dasharray="7 6"/><line x1="762.00" y1="594.00" x2="757.84" y2="230.17" stroke="#58C6E0" stroke-opacity=".40" stroke-width="1" stroke-dasharray="7 6"/><line x1="762.00" y1="594.00" x2="580.64" y2="228.02" stroke="#58C6E0" stroke-opacity=".40" stroke-width="1" stroke-dasharray="7 6"/><line x1="762.00" y1="594.00" x2="683.79" y2="191.13" stroke="#58C6E0" stroke-opacity=".40" stroke-width="1" stroke-dasharray="7 6"/><line x1="762.00" y1="594.00" x2="693.11" y2="171.34" stroke="#58C6E0" stroke-opacity=".40" stroke-width="1" stroke-dasharray="7 6"/><line x1="762.00" y1="594.00" x2="764.93" y2="148.13" stroke="#58C6E0" stroke-opacity=".40" stroke-width="1" stroke-dasharray="7 6"/><line x1="762.00" y1="594.00" x2="646.23" y2="150.03" stroke="#58C6E0" stroke-opacity=".40" stroke-width="1" stroke-dasharray="7 6"/><line x1="762.00" y1="594.00" x2="715.65" y2="132.43" stroke="#58C6E0" stroke-opacity=".40" stroke-width="1" stroke-dasharray="7 6"/><line x1="762.00" y1="594.00" x2="762.00" y2="380.76" stroke="#58C6E0" stroke-opacity=".40" stroke-width="1" stroke-dasharray="7 6"/><line x1="762.00" y1="594.00" x2="869.23" y2="285.22" stroke="#58C6E0" stroke-opacity=".40" stroke-width="1" stroke-dasharray="7 6"/><line x1="762.00" y1="594.00" x2="665.95" y2="295.18" stroke="#58C6E0" stroke-opacity=".40" stroke-width="1" stroke-dasharray="7 6"/><line x1="762.00" y1="594.00" x2="773.92" y2="235.64" stroke="#58C6E0" stroke-opacity=".40" stroke-width="1" stroke-dasharray="7 6"/><line x1="762.00" y1="594.00" x2="603.20" y2="222.73" stroke="#58C6E0" stroke-opacity=".40" stroke-width="1" stroke-dasharray="7 6"/><line x1="762.00" y1="594.00" x2="685.91" y2="192.74" stroke="#58C6E0" stroke-opacity=".40" stroke-width="1" stroke-dasharray="7 6"/><line x1="762.00" y1="594.00" x2="572.13" y2="197.11" stroke="#58C6E0" stroke-opacity=".40" stroke-width="1" stroke-dasharray="7 6"/><line x1="762.00" y1="594.00" x2="649.92" y2="173.71" stroke="#58C6E0" stroke-opacity=".40" stroke-width="1" stroke-dasharray="7 6"/></g>
  <line x1="-50.00" y1="88.00" x2="1250.00" y2="88.00" stroke="#F2A65A" stroke-opacity=".70" stroke-width="1.2"/>
  <g id="boxes"><path d="M701.57,223.24L660.45,204.56L721.34,189.11L764.57,202.88Z" fill="#080D1B" fill-opacity=".88" stroke="#F8D6A2" stroke-width="2.2" stroke-linejoin="round"/><path d="M707.78,261.35L764.34,237.57L764.57,202.88L701.57,223.24Z" fill="#080D1B" fill-opacity=".88" stroke="#F8D6A2" stroke-width="2.2" stroke-linejoin="round"/><path d="M707.78,261.35L669.57,239.55L660.45,204.56L701.57,223.24Z" fill="#080D1B" fill-opacity=".88" stroke="#F8D6A2" stroke-width="2.2" stroke-linejoin="round"/><path d="M622.70,268.33L595.45,245.86L663.68,225.32L695.26,242.02Z" fill="#080D1B" fill-opacity=".88" stroke="#F8D6A2" stroke-width="2.2" stroke-linejoin="round"/><path d="M632.18,290.48L699.18,262.67L695.26,242.02L622.70,268.33Z" fill="#080D1B" fill-opacity=".88" stroke="#F8D6A2" stroke-width="2.2" stroke-linejoin="round"/><path d="M632.18,290.48L605.45,266.76L595.45,245.86L622.70,268.33Z" fill="#080D1B" fill-opacity=".88" stroke="#F8D6A2" stroke-width="2.2" stroke-linejoin="round"/><path d="M765.34,301.83L703.75,265.38L687.57,174.12L766.53,198.10Z" fill="#080D1B" fill-opacity=".88" stroke="#F8D6A2" stroke-width="2.2" stroke-linejoin="round"/><path d="M765.34,301.83L823.50,266.76L840.75,174.98L766.53,198.10Z" fill="#080D1B" fill-opacity=".88" stroke="#F8D6A2" stroke-width="2.2" stroke-linejoin="round"/><path d="M766.53,198.10L687.57,174.12L762.00,159.30L840.75,174.98Z" fill="#080D1B" fill-opacity=".88" stroke="#F8D6A2" stroke-width="2.2" stroke-linejoin="round"/><path d="M659.73,325.81L602.91,272.97L693.39,240.60L758.35,274.86Z" fill="#080D1B" fill-opacity=".88" stroke="#F8D6A2" stroke-width="2.2" stroke-linejoin="round"/><path d="M876.44,310.48L780.23,265.17L835.31,236.45L924.05,266.99Z" fill="#080D1B" fill-opacity=".88" stroke="#F8D6A2" stroke-width="2.2" stroke-linejoin="round"/><path d="M862.49,345.04L778.41,297.91L780.23,265.17L876.44,310.48Z" fill="#080D1B" fill-opacity=".88" stroke="#F8D6A2" stroke-width="2.2" stroke-linejoin="round"/><path d="M862.49,345.04L907.77,299.85L924.05,266.99L876.44,310.48Z" fill="#080D1B" fill-opacity=".88" stroke="#F8D6A2" stroke-width="2.2" stroke-linejoin="round"/><path d="M670.49,354.00L616.23,299.85L602.91,272.97L659.73,325.81Z" fill="#080D1B" fill-opacity=".88" stroke="#F8D6A2" stroke-width="2.2" stroke-linejoin="round"/><path d="M670.49,354.00L758.66,301.83L758.35,274.86L659.73,325.81Z" fill="#080D1B" fill-opacity=".88" stroke="#F8D6A2" stroke-width="2.2" stroke-linejoin="round"/><path d="M762.00,406.94L677.74,331.88L772.45,279.65L856.07,323.14Z" fill="#080D1B" fill-opacity=".88" stroke="#F8D6A2" stroke-width="2.2" stroke-linejoin="round"/><path d="M762.00,424.35L849.45,342.19L856.07,323.14L762.00,406.94Z" fill="#080D1B" fill-opacity=".88" stroke="#F8D6A2" stroke-width="2.2" stroke-linejoin="round"/><path d="M762.00,424.35L683.87,350.95L677.74,331.88L762.00,406.94Z" fill="#080D1B" fill-opacity=".88" stroke="#F8D6A2" stroke-width="2.2" stroke-linejoin="round"/></g>
  <circle cx="404.00" cy="88.00" r="16.900000000000002" fill="#F2A65A" fill-opacity=".18"/><circle cx="404.00" cy="88.00" r="6.5" fill="#F2A65A"/><circle cx="1120.00" cy="88.00" r="16.900000000000002" fill="#F2A65A" fill-opacity=".18"/><circle cx="1120.00" cy="88.00" r="6.5" fill="#F2A65A"/><circle cx="762.00" cy="594.00" r="19.435" fill="#58C6E0" fill-opacity=".18"/><circle cx="762.00" cy="594.00" r="7.475" fill="#58C6E0"/>
</g>
</svg>